<svg xmlns="http://www.w3.org/2000/svg" height="24" viewBox="0 -960 960 960" width="24"><path d="M212.651-160.347q-14.826 14.826-35.5 13.979-20.674-.848-33.935-16.675-48.261-58.956-73.827-129.674Q43.825-363.434 43.825-440q0-90.17 34.044-169.477 34.043-79.307 92.848-138.111 58.805-58.805 138.111-92.848 79.307-34.044 169.477-34.044 104.001 0 196.175 46.348 92.175 46.348 153.697 130.784 12.13 16.391 9 36.065-3.131 19.674-19.522 31.805-16.392 12.13-36.066 9-19.674-3.131-31.804-19.522-47.696-65.479-119.131-101.501-71.435-36.022-152.349-36.022-140.783 0-239.153 98.37-98.369 98.37-98.369 239.153 0 57.385 18.782 110.671 18.783 53.286 54.218 98.547 12.695 16.391 12.913 36.283.217 19.891-14.044 34.152Zm119.341-119.34q-14.949 14.949-34.776 14.883-19.826-.065-32.087-16.326-24.696-33.261-38.761-73.326-14.065-40.065-14.065-85.544 0-110.834 77.564-188.418 77.565-77.583 188.371-77.583 110.806 0 188.437 77.583Q744.306-550.834 744.306-440q0 45.247-14.066 85.645-14.065 40.399-38.761 73.225-12.261 15.826-32.087 16.326-19.826.5-34.775-14.449-13.704-13.703-13.921-33.529-.217-19.827 10.348-37.218 11.95-20 18.845-42.5 6.894-22.5 6.894-47.5 0-69.497-49.469-118.988-49.468-49.491-118.935-49.491-69.466 0-119.01 49.491Q309.826-509.497 309.826-440q0 25.435 6.894 47.629T335.565-350q10.565 17.391 10.347 37-.217 19.609-13.92 33.313Zm146.227-62.79q-40.263 0-68.85-28.673-28.587-28.672-28.587-68.935 0-40.263 28.672-68.85 28.672-28.588 68.935-28.588 40.263 0 68.851 28.673 28.587 28.672 28.587 68.935 0 40.263-28.672 68.85-28.673 28.588-68.936 28.588Zm386.057 198.304q-22.058 0-37.232-15.035-15.174-15.036-15.174-37.262t15.035-37.117q15.036-14.892 37.262-14.892t37.117 14.922q14.892 14.921 14.892 36.978 0 22.058-14.921 37.232-14.922 15.174-36.979 15.174Zm-48.449-220.914V-520q0-20.603 13.938-34.541 13.937-13.938 34.541-13.938 20.603 0 34.541 13.938 13.937 13.938 13.937 34.541v154.913q0 20.603-13.937 34.541-13.938 13.937-34.541 13.937-20.604 0-34.541-13.937-13.938-13.938-13.938-34.541Z" fill="#403B58"/></svg>