<svg version="1.1" xmlns="http://www.w3.org/2000/svg" xmlns:xlink="http://www.w3.org/1999/xlink" width="960px" height="560px" viewBox="0,0,256,149.32813"><g fill="#e3e7f9" fill-rule="nonzero" stroke="none" stroke-width="1" stroke-linecap="butt" stroke-linejoin="miter" stroke-miterlimit="10" stroke-dasharray="" stroke-dashoffset="0" font-family="none" font-weight="none" font-size="none" text-anchor="none" style="mix-blend-mode: normal"><g transform="translate(0,-0.00224) scale(1,1.00003)"><g><g transform="translate(-0.00274,-0.0042) scale(1,1.00003)"><g transform="translate(-90.88,-53.01148) scale(1.71,1.71)"><g><g transform="translate(-0.00033,-0.00294) scale(0.26667,0.26667)"><g id="Rounded_Rectangle_33_copy_4_1_"><path d="M480,344.181l-211.131,-212.292c-15.756,-15.859 -41.3,-15.859 -57.054,0c-15.754,15.857 -15.754,41.57 0,57.431l237.632,238.937c8.395,8.451 19.562,12.254 30.553,11.698c10.993,0.556 22.159,-3.247 30.555,-11.698l237.631,-238.937c15.756,-15.86 15.756,-41.571 0,-57.431c-15.756,-15.86 -41.299,-15.859 -57.051,0z"></path></g></g></g></g></g></g></g></g></svg>