<svg xmlns="http://www.w3.org/2000/svg" height="24" viewBox="0 -960 960 960" width="24"><path d="M373.609-292.913q-120.533 0-204.528-84.028-83.994-84.028-83.994-204.609 0-120.58 84.028-204.494 84.028-83.913 204.608-83.913 120.581 0 204.494 83.995t83.913 204.527q0 46.131-11.934 85.435-11.935 39.304-33.674 69.609l215.739 216.304q17.261 17.826 17.261 42.922 0 25.097-17.826 42.948-17.713 17.261-42.879 17.261-25.165 0-42.991-17.261L531.919-338.956q-29.702 20.739-71.224 33.391-41.521 12.652-87.086 12.652Zm-.233-122.957q70.245 0 118.021-47.543 47.776-47.544 47.776-117.789t-47.776-118.021q-47.776-47.776-118.021-47.776-70.246 0-117.789 47.776-47.543 47.776-47.543 118.021t47.543 117.789q47.543 47.543 117.789 47.543Z" fill="#403B58"/></svg>