<svg version="1.1" xmlns="http://www.w3.org/2000/svg" xmlns:xlink="http://www.w3.org/1999/xlink" width="512" height="512" viewBox="0,0,256,256"><g fill="#221f55" fill-rule="nonzero" stroke="none" stroke-width="1" stroke-linecap="butt" stroke-linejoin="miter" stroke-miterlimit="10" stroke-dasharray="" stroke-dashoffset="0" font-family="none" font-weight="none" font-size="none" text-anchor="none" style="mix-blend-mode: normal"><g transform="translate(0,-0.00025) scale(0.49981,0.49981)"><g><circle cx="256.095" cy="256.095" r="85.333"></circle><path d="M496.543,201.034c-33.088,-53.888 -108.352,-144.299 -240.448,-144.299c-132.096,0 -207.36,90.411 -240.448,144.299c-20.862,33.743 -20.862,76.379 0,110.123c33.088,53.888 108.352,144.299 240.448,144.299c132.096,0 207.36,-90.411 240.448,-144.299c20.862,-33.744 20.862,-76.38 0,-110.123zM256.095,384.095c-70.692,0 -128,-57.308 -128,-128c0,-70.692 57.308,-128 128,-128c70.692,0 128,57.308 128,128c-0.071,70.663 -57.337,127.929 -128,128z"></path></g></g></g></svg>